<svg xmlns="http://www.w3.org/2000/svg" width="30" height="30" viewBox="0 0 30 30" version="1.1"><path d="" stroke="none" fill="#080404" fill-rule="evenodd"/><path d="M 13.339 2.944 C 13.910 5.798, 13.798 5.898, 9.714 6.194 L 5.500 6.500 5.212 15.750 L 4.925 25 15 25 L 25.075 25 24.788 15.750 L 24.500 6.500 20.286 6.194 C 16.202 5.898, 16.090 5.798, 16.661 2.944 C 17.173 0.383, 16.957 -0, 15 -0 C 13.043 -0, 12.827 0.383, 13.339 2.944 M 1 16 C 1 18.200, 1.450 20, 2 20 C 2.550 20, 3 18.200, 3 16 C 3 13.800, 2.550 12, 2 12 C 1.450 12, 1 13.800, 1 16 M 10 13 C 10 13.550, 10.450 14, 11 14 C 11.550 14, 12 13.550, 12 13 C 12 12.450, 11.550 12, 11 12 C 10.450 12, 10 12.450, 10 13 M 18 13 C 18 13.550, 18.450 14, 19 14 C 19.550 14, 20 13.550, 20 13 C 20 12.450, 19.550 12, 19 12 C 18.450 12, 18 12.450, 18 13 M 26.794 19.250 L 26.500 26.500 20.250 26.326 C 14.706 26.172, 14 26.368, 14 28.061 C 14 29.796, 14.568 29.918, 20.250 29.400 C 29.453 28.562, 29 29.048, 29 20.031 C 29 10.017, 27.194 9.377, 26.794 19.250 M 10.200 20.200 C 7.979 22.421, 8.972 23, 15 23 C 21.028 23, 22.021 22.421, 19.800 20.200 C 18.248 18.648, 11.752 18.648, 10.200 20.200" stroke="none" fill="#040404" fill-rule="evenodd"/></svg>
